<svg xmlns="http://www.w3.org/2000/svg" viewBox="0 0 195.74 59.53"><defs><style>.cls-1{fill:#fff;}</style></defs><title>Apple</title><g id="Layer_2" data-name="Layer 2"><g id="Layer_1-2" data-name="Layer 1"><rect width="195.74" height="59.53" rx="10"/><path class="cls-1" d="M17.79,24.32c-3.17,5.51-1.16,13.87,2.36,18.94,1.75,2.54,3.52,4.82,6,4.82h.14A7.3,7.3,0,0,0,29,47.34a7.42,7.42,0,0,1,3.27-.78,7.08,7.08,0,0,1,3.12.75,6.72,6.72,0,0,0,3,.72c2.73-.05,4.42-2.51,5.9-4.68a20.43,20.43,0,0,0,2.58-5.29l0,0a.31.31,0,0,0-.17-.37h0a7.88,7.88,0,0,1-4.76-7.19,8.09,8.09,0,0,1,3.82-6.75l0,0a.35.35,0,0,0,.14-.2.31.31,0,0,0,0-.23,8.89,8.89,0,0,0-7-3.8,6.08,6.08,0,0,0-.61,0,12.06,12.06,0,0,0-4.38,1.1,7.32,7.32,0,0,1-2.1.62,6.84,6.84,0,0,1-2.18-.63,10.45,10.45,0,0,0-3.83-1H25.7A9.38,9.38,0,0,0,17.79,24.32Z"/><path class="cls-1" d="M38.89,10.52a8.53,8.53,0,0,0-5.66,2.9,8,8,0,0,0-2,6,.3.3,0,0,0,.28.26l.4,0a7.25,7.25,0,0,0,5.34-2.74,8.47,8.47,0,0,0,2-6.13A.31.31,0,0,0,38.89,10.52Z"/><path class="cls-1" d="M61.23,13.58h3.68a5.36,5.36,0,0,1,2.57.6,4.42,4.42,0,0,1,1.75,1.65,4.71,4.71,0,0,1,.62,2.4,4.66,4.66,0,0,1-.62,2.4,4.35,4.35,0,0,1-1.75,1.65,5.36,5.36,0,0,1-2.57.6H61.23Zm3.63,8.69a4.87,4.87,0,0,0,2.27-.51,3.66,3.66,0,0,0,1.51-1.43,4.35,4.35,0,0,0,0-4.2,3.66,3.66,0,0,0-1.51-1.43,4.87,4.87,0,0,0-2.27-.51h-3v8.08Z"/><path class="cls-1" d="M72.93,22.48a3.24,3.24,0,0,1-1.24-1.25,3.89,3.89,0,0,1,0-3.63,3.26,3.26,0,0,1,1.24-1.26,3.73,3.73,0,0,1,3.55,0,3.33,3.33,0,0,1,1.24,1.26,3.89,3.89,0,0,1,0,3.63,3.31,3.31,0,0,1-1.24,1.25,3.65,3.65,0,0,1-3.55,0Zm3.2-.51a2.7,2.7,0,0,0,1-1,3.37,3.37,0,0,0,0-3,2.68,2.68,0,0,0-2.43-1.41,2.77,2.77,0,0,0-1.43.37,2.68,2.68,0,0,0-1,1,3.29,3.29,0,0,0,0,3,2.68,2.68,0,0,0,1,1,2.87,2.87,0,0,0,1.43.37A2.82,2.82,0,0,0,76.13,22Z"/><path class="cls-1" d="M90,16l-2.64,6.93h-.62l-2.34-6-2.35,6h-.61L78.76,16h.63l2.32,6.19L84.07,16h.57L87,22.12,89.33,16Z"/><path class="cls-1" d="M96.94,16.65a3,3,0,0,1,.75,2.18v4.05H97v-4a2.48,2.48,0,0,0-.59-1.78,2.2,2.2,0,0,0-1.66-.61,2.53,2.53,0,0,0-1.92.73,2.72,2.72,0,0,0-.71,2v3.69h-.66V16h.64v1.5A2.58,2.58,0,0,1,93.2,16.3a3.32,3.32,0,0,1,1.68-.41A2.79,2.79,0,0,1,96.94,16.65Z"/><path class="cls-1" d="M100.43,13h.67v9.86h-.67Z"/><path class="cls-1" d="M104.84,22.48a3.26,3.26,0,0,1-1.25-1.25,3.89,3.89,0,0,1,0-3.63,3.29,3.29,0,0,1,1.25-1.26,3.71,3.71,0,0,1,3.54,0,3.29,3.29,0,0,1,1.25,1.26,3.89,3.89,0,0,1,0,3.63,3.26,3.26,0,0,1-1.25,1.25,3.64,3.64,0,0,1-3.54,0ZM108,22a2.78,2.78,0,0,0,1-1,3.37,3.37,0,0,0,0-3,2.78,2.78,0,0,0-1-1,2.95,2.95,0,0,0-2.86,0,2.78,2.78,0,0,0-1,1,3.37,3.37,0,0,0,0,3,2.78,2.78,0,0,0,1,1A2.95,2.95,0,0,0,108,22Z"/><path class="cls-1" d="M116.43,16.55a2.54,2.54,0,0,1,.69,1.93v4.4h-.64V21.65a2.34,2.34,0,0,1-1,1,3.25,3.25,0,0,1-1.52.34,2.83,2.83,0,0,1-1.83-.55,1.74,1.74,0,0,1-.67-1.43,1.76,1.76,0,0,1,.62-1.41,2.94,2.94,0,0,1,2-.54h2.38v-.55a2,2,0,0,0-.53-1.48,2.15,2.15,0,0,0-1.53-.5,3.68,3.68,0,0,0-1.32.24,3.29,3.29,0,0,0-1.07.63l-.34-.47a3.68,3.68,0,0,1,1.25-.73,4.64,4.64,0,0,1,1.53-.26A2.75,2.75,0,0,1,116.43,16.55ZM115.55,22a2.46,2.46,0,0,0,.91-1.15V19.53h-2.37a2.35,2.35,0,0,0-1.48.38,1.21,1.21,0,0,0-.46,1,1.28,1.28,0,0,0,.51,1.07,2.26,2.26,0,0,0,1.42.39A2.61,2.61,0,0,0,115.55,22Z"/><path class="cls-1" d="M126,13v9.86h-.65V21.25a3,3,0,0,1-1.16,1.25,3.3,3.3,0,0,1-1.69.44,3.46,3.46,0,0,1-1.75-.46,3.21,3.21,0,0,1-1.23-1.25,3.91,3.91,0,0,1,0-3.64,3.15,3.15,0,0,1,1.23-1.25,3.46,3.46,0,0,1,1.75-.45,3.23,3.23,0,0,1,1.67.44,3.1,3.1,0,0,1,1.16,1.22V13Zm-2,9a2.78,2.78,0,0,0,1-1,3.37,3.37,0,0,0,0-3,2.78,2.78,0,0,0-1-1,2.95,2.95,0,0,0-2.86,0,2.68,2.68,0,0,0-1,1,3.29,3.29,0,0,0,0,3,2.68,2.68,0,0,0,1,1A2.95,2.95,0,0,0,124,22Z"/><path class="cls-1" d="M133.19,22.48A3.31,3.31,0,0,1,132,21.23a3.89,3.89,0,0,1,0-3.63,3.33,3.33,0,0,1,1.24-1.26,3.54,3.54,0,0,1,1.78-.45,3.5,3.5,0,0,1,1.77.45A3.26,3.26,0,0,1,138,17.6a3.81,3.81,0,0,1,0,3.63,3.24,3.24,0,0,1-1.24,1.25,3.51,3.51,0,0,1-1.77.46A3.55,3.55,0,0,1,133.19,22.48ZM136.4,22a2.68,2.68,0,0,0,1-1,3.29,3.29,0,0,0,0-3,2.68,2.68,0,0,0-1-1,2.95,2.95,0,0,0-2.86,0,2.78,2.78,0,0,0-1,1,3.37,3.37,0,0,0,0,3,2.78,2.78,0,0,0,1,1,2.95,2.95,0,0,0,2.86,0Z"/><path class="cls-1" d="M145.94,16.65a2.92,2.92,0,0,1,.76,2.18v4.05H146v-4a2.48,2.48,0,0,0-.59-1.78,2.2,2.2,0,0,0-1.66-.61,2.52,2.52,0,0,0-1.92.73,2.72,2.72,0,0,0-.71,2v3.69h-.66V16h.63v1.5a2.7,2.7,0,0,1,1.07-1.15,3.38,3.38,0,0,1,1.69-.41A2.75,2.75,0,0,1,145.94,16.65Z"/><path class="cls-1" d="M156.3,22.44a1.78,1.78,0,0,1-.63.37,2.68,2.68,0,0,1-.8.13,1.88,1.88,0,0,1-1.39-.5,1.9,1.9,0,0,1-.49-1.39V16.52h-1.28V16H153V14.43h.66V16h2.21v.57h-2.21V21a1.45,1.45,0,0,0,.33,1,1.22,1.22,0,0,0,1,.35A1.53,1.53,0,0,0,156,22Z"/><path class="cls-1" d="M163.59,16.65a2.92,2.92,0,0,1,.76,2.18v4.05h-.66v-4a2.44,2.44,0,0,0-.6-1.78,2.17,2.17,0,0,0-1.65-.61,2.54,2.54,0,0,0-1.93.73,2.71,2.71,0,0,0-.7,2v3.69h-.67V13h.67v4.37a2.64,2.64,0,0,1,1.06-1.11,3.37,3.37,0,0,1,1.66-.39A2.76,2.76,0,0,1,163.59,16.65Z"/><path class="cls-1" d="M173,19.57h-6a2.89,2.89,0,0,0,.42,1.44,2.52,2.52,0,0,0,1,1,3.3,3.3,0,0,0,2.74.1,2.44,2.44,0,0,0,1-.72l.39.44a3,3,0,0,1-1.14.83,3.66,3.66,0,0,1-1.48.3,3.76,3.76,0,0,1-1.85-.46,3.25,3.25,0,0,1-1.27-1.25,3.62,3.62,0,0,1-.46-1.82,3.87,3.87,0,0,1,.43-1.81,3.19,3.19,0,0,1,2.9-1.71,3.24,3.24,0,0,1,1.69.45,3.13,3.13,0,0,1,1.18,1.24,3.7,3.7,0,0,1,.43,1.81Zm-4.61-2.77a2.59,2.59,0,0,0-.94.92,3,3,0,0,0-.4,1.33h5.31a2.69,2.69,0,0,0-.4-1.32,2.51,2.51,0,0,0-.94-.92,2.63,2.63,0,0,0-1.31-.33A2.74,2.74,0,0,0,168.35,16.8Z"/><path class="cls-1" d="M71.07,43.45H63.12l-1.57,3.68h-3l7.15-15.9h2.91l7.18,15.9H72.66Zm-1-2.32-3-7-3,7Z"/><path class="cls-1" d="M87.38,35.63a5.69,5.69,0,0,1,2.2,2.18,7.1,7.1,0,0,1,0,6.51,5.52,5.52,0,0,1-2.2,2.19,6.35,6.35,0,0,1-3.16.77,4.91,4.91,0,0,1-3.89-1.63v5.88H77.49V35H80.2v1.59a4.36,4.36,0,0,1,1.73-1.3,6,6,0,0,1,2.29-.43A6.46,6.46,0,0,1,87.38,35.63Zm-.9,8.18a4.25,4.25,0,0,0,0-5.5,3.47,3.47,0,0,0-2.58-1,3.64,3.64,0,0,0-1.84.46,3.46,3.46,0,0,0-1.3,1.33,4.19,4.19,0,0,0-.47,2,4.13,4.13,0,0,0,.47,2,3.33,3.33,0,0,0,1.3,1.33,3.64,3.64,0,0,0,1.84.46A3.44,3.44,0,0,0,86.48,43.81Z"/><path class="cls-1" d="M103,35.63a5.66,5.66,0,0,1,2.19,2.18,7,7,0,0,1,0,6.51A5.49,5.49,0,0,1,103,46.51a6.36,6.36,0,0,1-3.17.77,4.89,4.89,0,0,1-3.88-1.63v5.88H93.07V35h2.7v1.59a4.39,4.39,0,0,1,1.74-1.3,6,6,0,0,1,2.28-.43A6.47,6.47,0,0,1,103,35.63Zm-.91,8.18a4.25,4.25,0,0,0,0-5.5,3.44,3.44,0,0,0-2.57-1,3.64,3.64,0,0,0-1.84.46,3.46,3.46,0,0,0-1.3,1.33,4.08,4.08,0,0,0-.47,2,4,4,0,0,0,.47,2,3.33,3.33,0,0,0,1.3,1.33,3.64,3.64,0,0,0,1.84.46A3.4,3.4,0,0,0,102.05,43.81Z"/><path class="cls-1" d="M116.56,46.83a7.41,7.41,0,0,1-2.71-1.39l1-2.29a7.78,7.78,0,0,0,2.4,1.26,8.59,8.59,0,0,0,2.85.49,4.88,4.88,0,0,0,2.64-.57,1.72,1.72,0,0,0,.88-1.5,1.43,1.43,0,0,0-.49-1.12,3.23,3.23,0,0,0-1.24-.69q-.75-.26-2-.57a25.88,25.88,0,0,1-2.94-.86A4.83,4.83,0,0,1,115,38.23a3.61,3.61,0,0,1-.81-2.48,4.23,4.23,0,0,1,.72-2.4,4.75,4.75,0,0,1,2.15-1.71A8.68,8.68,0,0,1,120.6,31a11.56,11.56,0,0,1,2.86.36,8.18,8.18,0,0,1,2.43,1L125,34.7a9.23,9.23,0,0,0-2.18-.93,8.31,8.31,0,0,0-2.21-.32A4.65,4.65,0,0,0,118,34a1.85,1.85,0,0,0-.85,1.57,1.38,1.38,0,0,0,.49,1.11,3.61,3.61,0,0,0,1.24.69c.5.16,1.18.35,2,.56a22,22,0,0,1,2.91.86,4.94,4.94,0,0,1,1.94,1.35,3.53,3.53,0,0,1,.81,2.45,4.15,4.15,0,0,1-.72,2.38,4.88,4.88,0,0,1-2.17,1.71,8.9,8.9,0,0,1-3.54.63A12.12,12.12,0,0,1,116.56,46.83Z"/><path class="cls-1" d="M136.49,46.47a3.45,3.45,0,0,1-1.21.61,5.35,5.35,0,0,1-1.51.2,4.28,4.28,0,0,1-3.09-1,4,4,0,0,1-1.09-3V37.36h-2V35.09h2V32.32h2.84v2.77h3.25v2.27h-3.25v5.77a1.9,1.9,0,0,0,.43,1.35,1.62,1.62,0,0,0,1.25.47,2.54,2.54,0,0,0,1.59-.5Z"/><path class="cls-1" d="M140.56,46.49a5.85,5.85,0,0,1-2.31-2.21,6.3,6.3,0,0,1-.83-3.22,6.23,6.23,0,0,1,.83-3.2,5.83,5.83,0,0,1,2.31-2.2,7.31,7.31,0,0,1,6.65,0,5.83,5.83,0,0,1,2.31,2.2,6.23,6.23,0,0,1,.83,3.2,6.3,6.3,0,0,1-.83,3.22,5.85,5.85,0,0,1-2.31,2.21,7.39,7.39,0,0,1-6.65,0Zm5.9-2.68a4.22,4.22,0,0,0,0-5.5,3.48,3.48,0,0,0-2.59-1,3.44,3.44,0,0,0-2.57,1,4.25,4.25,0,0,0,0,5.5,3.4,3.4,0,0,0,2.57,1A3.44,3.44,0,0,0,146.46,43.81Z"/><path class="cls-1" d="M160.09,34.86v2.7a4,4,0,0,0-.66-.06,3.43,3.43,0,0,0-2.59,1,3.86,3.86,0,0,0-.93,2.78v5.89h-2.84V35h2.7v1.77Q157,34.86,160.09,34.86Z"/><path class="cls-1" d="M173.74,42h-9.52a3.29,3.29,0,0,0,1.31,2.12,4.23,4.23,0,0,0,2.62.79,4.41,4.41,0,0,0,3.29-1.32L173,45.31a5.06,5.06,0,0,1-2.06,1.47,7.42,7.42,0,0,1-2.82.5,7.51,7.51,0,0,1-3.52-.79,5.77,5.77,0,0,1-2.35-2.21,6.67,6.67,0,0,1,0-6.41,5.73,5.73,0,0,1,2.24-2.21,6.49,6.49,0,0,1,3.22-.8,6.29,6.29,0,0,1,3.17.79,5.5,5.5,0,0,1,2.18,2.2,6.68,6.68,0,0,1,.78,3.28C173.78,41.33,173.77,41.61,173.74,42Zm-8.39-4a3.36,3.36,0,0,0-1.15,2.15h6.88A3.36,3.36,0,0,0,170,38a3.42,3.42,0,0,0-2.32-.82A3.38,3.38,0,0,0,165.35,37.94Z"/></g></g></svg>