<svg xmlns="http://www.w3.org/2000/svg" viewBox="0 0 269.75 438.45"><defs><style>.cls-1{isolation:isolate;}.cls-2{mix-blend-mode:multiply;}.cls-3{fill:#00b8ad;}.cls-4{fill:#003359;}.cls-5{fill:#ffb412;}.cls-6{fill:#0087eb;}</style></defs><title>FAQs</title><g class="cls-1"><g id="Layer_2" data-name="Layer 2"><g id="Layer_1-2" data-name="Layer 1"><g class="cls-2"><path class="cls-3" d="M70.45,364.25H69l-.19-1.41c-.64-4.67-1.25-8.74-1.79-12.34-2.48-16.47-3.5-23.29,1.54-31.21C73.78,311.13,81,306,87.94,301c7.36-5.24,15-10.66,20.16-19.7,5-8.68,4.74-18.27-.66-25C101,248.23,88.88,246,75.07,250.24a102.34,102.34,0,0,0-17.53,7.28c-11.54,5.86-12.38,4.56-26.41-17.19-1.45-2.24-3.05-4.72-4.83-7.45l-.79-1.21,1.11-.93c28.91-24.23,64.33-31.71,94.75-20,22.25,8.56,37.24,25.81,40.09,46.16,3.25,23.13-9.65,46.93-36.3,67-17.32,13.06-16.57,22-16.06,27.84.24,2.88.47,5.61-1.5,7.76C104.29,363.09,95.26,364.25,70.45,364.25Zm17.7-119.39c9.16,0,16.88,3.23,21.83,9.42,6.26,7.82,6.62,18.82.94,28.68-5.55,9.66-13.45,15.29-21.08,20.73-7,5-13.65,9.73-18.5,17.34-4.39,6.9-3.49,12.92-1.07,29,.49,3.24,1,6.87,1.6,11,21.54,0,30.93-1.09,33.33-3.7,1-1.05.89-2.54.65-5.28-.56-6.6-1.41-16.57,17.35-30.72,25.67-19.34,38.11-42.05,35-64-2.69-19.16-16.91-35.44-38-43.57-28.91-11.11-62.59-4.17-90.38,18.56,1.47,2.26,2.81,4.34,4,6.25,6.7,10.37,10.38,16.08,13.15,18,2.14,1.47,3.88.7,9.05-1.93a106.23,106.23,0,0,1,18-7.48A47.82,47.82,0,0,1,88.15,244.86Z"/></g><g class="cls-2"><path class="cls-3" d="M85.93,431.42c-12.71,0-26.4-8-26.4-25.7s13.69-25.63,26.4-25.63c13.2,0,26.56,8.8,26.56,25.63,0,7.91-2.89,14.58-8.36,19.27A27.82,27.82,0,0,1,85.93,431.42Zm0-48.07c-11.14,0-23.14,7-23.14,22.37s12,22.44,23.14,22.44,23.3-7,23.3-22.44S97.15,383.35,85.93,383.35Z"/></g><g class="cls-2"><path class="cls-3" d="M70.45,371.28H62.89l-1-7.48c-.61-4.44-1.19-8.34-1.71-11.79l-.07-.47c-2.59-17.23-3.89-25.89,2.57-36,.48-.76,1-1.49,1.48-2.2l2.65,1.89c-.47.66-.93,1.35-1.38,2.06-5.81,9.12-4.57,17.36-2.1,33.8l.07.47c.52,3.46,1.11,7.37,1.72,11.83l.64,4.67h4.71c26.71,0,35.66-1.34,39.93-6a10,10,0,0,0,2.62-6.59l3.25.18a13.27,13.27,0,0,1-3.47,8.62C107.64,369.84,98.94,371.28,70.45,371.28Z"/><path class="cls-3" d="M107.81,270.68l-3.23-.36a15,15,0,0,0,.09-1.63,12.76,12.76,0,0,0-1.7-6.49c-2.85-4.93-9.15-7.52-16.88-7L85.86,252c9-.62,16.43,2.58,19.93,8.61a16.06,16.06,0,0,1,2.13,8.12A16.71,16.71,0,0,1,107.81,270.68Z"/><path class="cls-3" d="M49.18,267.58c-8.84,0-13-6.38-24-23.42l-.09-.14q-2.13-3.32-4.73-7.31l-4.18-6.43,5.88-4.93c14-11.71,29.17-19.74,45.16-23.88l.81,3.16c-15.51,4-30.28,11.82-43.88,23.22l-3.67,3.07,2.61,4c1.74,2.67,3.31,5.1,4.74,7.31l-1.28,1,1.37-.89c10.59,16.41,14.15,21.93,21.22,21.93a17,17,0,0,0,7.45-2.13L58,265.13A19.91,19.91,0,0,1,49.18,267.58Z"/><path class="cls-3" d="M150.5,309.76l-2.5-2.09c11.63-13.89,17.78-29,17.78-43.68a53.81,53.81,0,0,0-1.25-11.51l3.18-.7A57.14,57.14,0,0,1,169,264C169,279.45,162.62,295.28,150.5,309.76Z"/></g><g class="cls-2"><path class="cls-3" d="M86.09,438.45h-.16c-16.61,0-33.43-11.24-33.43-32.73a35.2,35.2,0,0,1,1.73-11.15l3.09,1a31.89,31.89,0,0,0-1.56,10.12c0,19.35,15.18,29.47,30.17,29.47Zm30-17.38-2.9-1.48a30.43,30.43,0,0,0,3.13-13.87,29,29,0,0,0-5.3-17.38l2.64-1.91a32.14,32.14,0,0,1,5.91,19.29A33.62,33.62,0,0,1,116,421.07Z"/></g><g class="cls-2"><path class="cls-4" d="M207.66,251.72h-1.42l-.2-1.4c-.37-2.78-.74-5.2-1.06-7.33-1.49-10-2.11-14.08,1-19s7.48-8,11.67-11c4.51-3.21,8.76-6.24,11.78-11.49,2.83-4.92,2.7-10.33-.34-14.13-3.66-4.58-10.58-5.84-18.52-3.39a61.16,61.16,0,0,0-10.3,4.28c-7.39,3.76-8.26,2.42-16.55-10.44l-2.86-4.42-.79-1.21,1.1-.93c17.37-14.55,38.66-19,56.95-12,13.45,5.17,22.51,15.62,24.24,27.95,2,14-5.79,28.34-21.82,40.42-10,7.54-9.59,12.41-9.29,16,.16,1.78.31,3.62-1.06,5.11C228.07,251,222.8,251.72,207.66,251.72Zm10.52-72.24c5.64,0,10.41,2,13.48,5.84,3.89,4.87,4.12,11.68.61,17.78-3.37,5.87-8.12,9.25-12.71,12.53-4.12,2.93-8,5.7-10.82,10.11-2.47,3.89-2,7.4-.54,16.76.27,1.78.56,3.76.88,6,8.61,0,17.21-.32,18.73-2,.39-.42.34-1.19.22-2.64-.33-3.81-.87-10.2,10.57-18.83,15-11.33,22.34-24.61,20.55-37.37C257.59,176.5,249.3,167,237,162.28c-16.79-6.45-36.34-2.51-52.57,10.55l2.08,3.21c3.93,6.09,6.09,9.44,7.62,10.49.93.64,1.62.38,4.71-1.19a64.26,64.26,0,0,1,10.82-4.49A29.1,29.1,0,0,1,218.18,179.48Z"/></g><g class="cls-2"><path class="cls-4" d="M216.86,291.62c-8.13,0-16.35-5.47-16.35-15.92s8.22-15.89,16.35-15.89,16.43,5.46,16.43,15.89S225,291.62,216.86,291.62Zm0-28.55c-6.31,0-13.09,3.95-13.09,12.63s6.78,12.67,13.09,12.67S230,284.4,230,275.7,223.2,263.07,216.86,263.07Z"/></g><g class="cls-2"><path class="cls-4" d="M207.66,258.76H200.1l-1-7.49c-.37-2.69-.73-5-1-7.12-1.58-10.51-2.52-16.79,2-23.93,3.89-6.11,9-9.76,13.52-13l1.56-1.12,1.9,2.64-1.56,1.13c-4.28,3-9.12,6.5-12.67,12.07-3.89,6.11-3.11,11.28-1.56,21.58.33,2.2.68,4.57,1.05,7.28l.64,4.67h4.72c15.1,0,22-.59,25.33-4.27,2.5-2.71,2.22-5.88,2-8-.29-3.4.06-6.66,7.31-12.25l2,2.58c-6.42,5-6.23,7.21-6.05,9.39.2,2.34.57,6.7-2.89,10.47C231.24,258,224.52,258.76,207.66,258.76Z"/><path class="cls-4" d="M227.37,196.78l-3.14-.87a6.14,6.14,0,0,0,.23-1.61,4.17,4.17,0,0,0-.53-2.1,4,4,0,0,0-1.14-1.24l1.9-2.65a7.2,7.2,0,0,1,3,6A9.39,9.39,0,0,1,227.37,196.78Z"/><path class="cls-4" d="M195,197.15c-7.17,0-10.31-4.87-17.19-15.53l-7-10.84,5.89-4.93c14.38-12,31.12-17.91,47.9-16.73l-.23,3.25c-15.95-1.12-31.86,4.48-45.58,16l-3.67,3.07,5.47,8.43c6.59,10.22,9.06,14,14.45,14,2.49,0,4.57-1,7-2.28a56.46,56.46,0,0,1,9.71-4,23.32,23.32,0,0,1,4.64-1l.33,3.24a20.45,20.45,0,0,0-4,.84,54,54,0,0,0-9.2,3.83C200.93,195.81,198.29,197.15,195,197.15Z"/><path class="cls-4" d="M264.12,212l-2.84-1.59a38.55,38.55,0,0,0,5.21-18.89,34.69,34.69,0,0,0-.88-7.72l3.17-.73a37.64,37.64,0,0,1,1,8.45A41.83,41.83,0,0,1,264.12,212Z"/></g><g class="cls-2"><path class="cls-4" d="M216.86,298.66c-11.62,0-23.38-7.89-23.38-23s11.76-22.92,23.38-22.92c11.37,0,23.47,8,23.47,22.92a22.73,22.73,0,0,1-3.24,12l-2.78-1.7a19.55,19.55,0,0,0,2.76-10.34c0-12.77-10.42-19.67-20.21-19.67-10,0-20.13,6.76-20.13,19.67s10.13,19.7,20.13,19.7Z"/></g><g class="cls-2"><path class="cls-5" d="M118.41,166H117l-.2-1.4c-.65-4.78-1.27-8.94-1.82-12.61-2.53-16.8-3.57-23.76,1.57-31.84,5.29-8.32,12.64-13.55,19.75-18.62,7.5-5.35,15.27-10.88,20.58-20.12,5.11-8.87,4.85-18.68-.68-25.59-6.6-8.25-19-10.58-33.08-6.21a105.28,105.28,0,0,0-17.9,7.43C93.46,63,92.6,61.7,78.29,39.52c-1.48-2.29-3.11-4.82-4.93-7.61l-.78-1.21,1.1-.92c29.51-24.73,65.65-32.37,96.7-20.43,22.7,8.73,38,26.33,40.9,47.09,3.31,23.6-9.84,47.89-37,68.38-17.7,13.34-16.93,22.43-16.41,28.45.24,2.93.48,5.71-1.53,7.89C152.93,164.83,143.72,166,118.41,166ZM136.48,44.2c9.34,0,17.21,3.29,22.25,9.6,6.39,8,6.76,19.19,1,29.25C154,92.9,146,98.64,138.18,104.2c-7.17,5.1-13.94,9.93-18.89,17.71-4.49,7.05-3.57,13.19-1.1,29.61.49,3.32,1,7,1.64,11.24,22,0,31.62-1.12,34.08-3.8,1-1.08.91-2.6.67-5.42-.57-6.72-1.44-16.89,17.7-31.32,26.21-19.75,38.92-42.95,35.78-65.33-2.75-19.57-17.27-36.21-38.85-44.5C139.67,1,105.26,8.13,76.88,31.35c1.51,2.32,2.88,4.45,4.15,6.41,6.83,10.59,10.6,16.43,13.43,18.36,2.2,1.5,4,.72,9.28-2a107.84,107.84,0,0,1,18.41-7.64A48.71,48.71,0,0,1,136.48,44.2Z"/></g><g class="cls-2"><path class="cls-5" d="M134.21,234.58c-13,0-26.91-8.2-26.91-26.2s14-26.13,26.91-26.13c13.46,0,27.08,9,27.08,26.13S147.67,234.58,134.21,234.58Zm0-49.07c-11.39,0-23.66,7.16-23.66,22.87s12.27,22.94,23.66,22.94S158,224.14,158,208.38,145.69,185.51,134.21,185.51Z"/></g><g class="cls-2"><path class="cls-5" d="M118.41,173.55h-8l-1.08-7.92c-.64-4.74-1.26-8.87-1.81-12.51-2.66-17.67-4-26.55,2.66-37l.49-.76,2.72,1.8-.46.7c-6,9.44-4.73,17.91-2.19,34.78.55,3.65,1.17,7.8,1.82,12.55l.7,5.1h5.15c27.39,0,36.6-1.4,41-6.23a10.24,10.24,0,0,0,2.58-5.17l3.2.6a13.44,13.44,0,0,1-3.38,6.77C156.6,172,147.26,173.55,118.41,173.55Z"/><path class="cls-5" d="M156.15,70.65l-3.24-.38A15.29,15.29,0,0,0,153,68.5,12.75,12.75,0,0,0,151.33,62c-3-5.15-9.7-7.74-18.05-6.89L133,51.9c9.67-1,17.56,2.21,21.2,8.5a16,16,0,0,1,2.12,8.1A19.64,19.64,0,0,1,156.15,70.65Z"/><path class="cls-5" d="M96.69,67.68c-9.2,0-13.43-6.56-24.73-24.07-1.47-2.29-3.1-4.81-4.91-7.59l-4.43-6.8L68.84,24C82.66,12.43,97.66,4.35,113.44,0l.87,3.14C99,7.37,84.39,15.23,70.94,26.5l-4,3.36,2.86,4.39c1.81,2.78,3.44,5.31,4.92,7.6,10.89,16.88,14.56,22.57,22,22.57a15,15,0,0,0,6-1.41L104,66A18.15,18.15,0,0,1,96.69,67.68Z"/><path class="cls-5" d="M199.9,111.18l-2.48-2.11C209.65,94.67,216.11,79,216.11,63.7a55.44,55.44,0,0,0-1.29-11.89l3.18-.7a58.71,58.71,0,0,1,1.37,12.59C219.37,79.76,212.64,96.18,199.9,111.18Z"/></g><g class="cls-2"><path class="cls-5" d="M134.37,242.11h-.16c-17.12,0-34.45-11.58-34.45-33.73a36.11,36.11,0,0,1,1.79-11.49l3.09,1A32.85,32.85,0,0,0,103,208.38c0,20,15.69,30.48,31.19,30.48Zm30.87-17.92-2.91-1.47a31.35,31.35,0,0,0,3.24-14.34,29.88,29.88,0,0,0-5.48-18l2.64-1.91a33.14,33.14,0,0,1,6.09,19.88A34.59,34.59,0,0,1,165.24,224.19Z"/></g><g class="cls-2"><path class="cls-6" d="M34.61,145.39H33.19L33,144c-.35-2.56-.69-4.8-1-6.77-1.34-9-2-13.07,1-17.66s6.94-7.46,10.83-10.23c4.15-3,8.08-5.76,10.86-10.6,2.59-4.5,2.48-9.45-.3-12.93-3.35-4.19-9.71-5.35-17-3.09a56.35,56.35,0,0,0-9.51,4c-6.94,3.53-7.75,2.27-15.47-9.7Q11.2,75.1,9.73,72.86l-.79-1.21,1.11-.93c16.1-13.49,35.84-17.65,52.8-11.12,12.48,4.8,20.89,14.5,22.5,25.95,1.82,13-5.36,26.31-20.24,37.51-9.19,6.93-8.81,11.39-8.53,14.65.14,1.67.29,3.4-1,4.82C53.55,144.72,48.66,145.39,34.61,145.39Zm9.73-67.08c5.25,0,9.7,1.87,12.56,5.45,3.64,4.54,3.86,10.9.59,16.59C54.35,105.8,50,108.94,45.69,112c-3.8,2.71-7.39,5.26-10,9.33-2.27,3.56-1.78,6.79-.49,15.42.25,1.62.52,3.41.8,5.41,7.9,0,15.76-.3,17.13-1.8.32-.35.28-1.08.17-2.34-.3-3.56-.81-9.51,9.82-17.53C77,110,83.77,97.76,82.12,86,80.68,75.74,73,67,61.68,62.64c-15.46-6-33.46-2.32-48.42,9.67l1.86,2.88c3.63,5.62,5.62,8.71,7,9.67.76.52,1.28.39,4.23-1.11a58.26,58.26,0,0,1,10-4.16A26.91,26.91,0,0,1,44.34,78.31Z"/></g><g class="cls-2"><path class="cls-6" d="M34.61,152.16H27.28l-1-7.27c-.34-2.49-.67-4.68-1-6.6-1.47-9.79-2.35-15.65,1.93-22.38,3.63-5.71,8.4-9.11,12.61-12.11,1.55-1.1,3-2.14,4.34-3.24l2.08,2.51c-1.42,1.17-2.93,2.25-4.53,3.39-4,2.82-8.46,6-11.75,11.2-3.63,5.7-2.91,10.5-1.47,20.06.3,2,.63,4.22,1,6.73l.61,4.45h4.48c14,0,20.38-.56,23.54-4,2.35-2.56,2.08-5.65,1.93-7.5-.28-3.28.07-6.21,7.15-11.55.88-.66,1.73-1.33,2.56-2l2.06,2.53c-.86.7-1.75,1.4-2.66,2.09-6.21,4.67-6,6.61-5.87,8.67s.54,6.36-2.77,10C56.62,151.39,50.33,152.16,34.61,152.16Z"/><path class="cls-6" d="M52.66,94.58l-3.12-.93a5.49,5.49,0,0,0,.23-1.51,3.5,3.5,0,0,0-.44-1.75L52,88.49l.18.29A6.67,6.67,0,0,1,53,92.14,8.71,8.71,0,0,1,52.66,94.58Z"/><path class="cls-6" d="M22.92,95.16c-6.84,0-9.78-4.55-16.22-14.54l-.19-.29L4.06,76.55,0,70.31l5.7-4.78C18,55.26,32,49.83,46.36,49.83a55.51,55.51,0,0,1,7.86.56l-.46,3.23a52.09,52.09,0,0,0-7.4-.53C32.79,53.09,19.46,58.26,7.8,68L4.3,71l2.49,3.81c.9,1.38,1.71,2.65,2.46,3.8l.18.29c6.54,10.13,8.64,13,13.49,13,2.34,0,4.27-1,6.52-2.13a52.56,52.56,0,0,1,9-3.73,17.72,17.72,0,0,1,8.49-.74l-.64,3.19a14.58,14.58,0,0,0-6.89.66,49.52,49.52,0,0,0-8.45,3.53C28.52,93.9,26,95.16,22.92,95.16Z"/><path class="cls-6" d="M88.14,106.9l-2.91-1.46a35.11,35.11,0,0,0,4-15.84,32,32,0,0,0-.83-7.21l3.17-.73a35.49,35.49,0,0,1,.91,7.94A38.33,38.33,0,0,1,88.14,106.9Z"/></g><g class="cls-2"><path class="cls-6" d="M43.12,199.58c-10.94,0-22-7.42-22-21.62s11.07-21.59,22-21.59c10.71,0,22.09,7.57,22.09,21.59A20.8,20.8,0,0,1,57,195l-2-2.6A17.32,17.32,0,0,0,62,178c0-11.9-9.71-18.33-18.84-18.33-9.32,0-18.76,6.3-18.76,18.33s9.44,18.37,18.76,18.37Z"/></g><g class="cls-2"><path class="cls-6" d="M43.12,192.82c-7.58,0-15.25-5.11-15.25-14.86s7.67-14.82,15.25-14.82S58.44,168.23,58.44,178,50.73,192.82,43.12,192.82Zm0-26.42c-5.78,0-12,3.62-12,11.56s6.21,11.6,12,11.6,12.07-3.63,12.07-11.6a11,11,0,0,0-3.72-8.65A12.77,12.77,0,0,0,43.12,166.4Z"/></g></g></g></g></svg>