<svg xmlns="http://www.w3.org/2000/svg" viewBox="0 0 195.74 59.53"><defs><style>.cls-1{fill:#fff;}.cls-2{fill:#ffd109;}.cls-3{fill:#06ef79;}.cls-4{fill:#f93646;}.cls-5{fill:#05d5fb;}</style></defs><title>Google Play_2</title><g id="Layer_2" data-name="Layer 2"><g id="Layer_1-2" data-name="Layer 1"><rect width="195.74" height="59.53" rx="10"/><path class="cls-1" d="M64.15,36h2.73v6.19a8.57,8.57,0,0,1-2.8,1.46,10.71,10.71,0,0,1-3.28.52,8.83,8.83,0,0,1-4.28-1,7.56,7.56,0,0,1-3-2.85,8.27,8.27,0,0,1,0-8.21,7.65,7.65,0,0,1,3-2.85,8.91,8.91,0,0,1,4.31-1,9.39,9.39,0,0,1,3.55.64,7,7,0,0,1,2.69,1.89l-1.82,1.77A5.84,5.84,0,0,0,61,30.68a6.14,6.14,0,0,0-2.92.68,5.09,5.09,0,0,0-2,1.93,5.59,5.59,0,0,0-.72,2.85,5.47,5.47,0,0,0,.72,2.79,5.14,5.14,0,0,0,2,2A5.77,5.77,0,0,0,61,41.6a6.28,6.28,0,0,0,3.2-.8Z"/><path class="cls-1" d="M72.49,43.28a5.7,5.7,0,0,1-2.25-2.16A6.12,6.12,0,0,1,69.43,38a6.06,6.06,0,0,1,.81-3.13,5.61,5.61,0,0,1,2.25-2.15,7.18,7.18,0,0,1,6.51,0,5.61,5.61,0,0,1,2.25,2.15A6.06,6.06,0,0,1,82.06,38a6.12,6.12,0,0,1-.81,3.14A5.7,5.7,0,0,1,79,43.28a7.18,7.18,0,0,1-6.51,0Zm5.77-2.62a4.1,4.1,0,0,0,0-5.37,3.37,3.37,0,0,0-2.53-1,3.32,3.32,0,0,0-2.51,1,4.14,4.14,0,0,0,0,5.37,3.32,3.32,0,0,0,2.51,1A3.37,3.37,0,0,0,78.26,40.66Z"/><path class="cls-1" d="M86.81,43.28a5.7,5.7,0,0,1-2.25-2.16A6.12,6.12,0,0,1,83.75,38a6.06,6.06,0,0,1,.81-3.13,5.61,5.61,0,0,1,2.25-2.15,7.16,7.16,0,0,1,6.5,0,5.61,5.61,0,0,1,2.25,2.15A6.06,6.06,0,0,1,96.37,38a6.12,6.12,0,0,1-.81,3.14,5.7,5.7,0,0,1-2.25,2.16,7.16,7.16,0,0,1-6.5,0Zm5.77-2.62a4.1,4.1,0,0,0,0-5.37,3.4,3.4,0,0,0-2.53-1,3.36,3.36,0,0,0-2.52,1,4.14,4.14,0,0,0,0,5.37,3.36,3.36,0,0,0,2.52,1A3.4,3.4,0,0,0,92.58,40.66Z"/><path class="cls-1" d="M110.8,32.05V42.11q0,6.26-6.39,6.25a11.79,11.79,0,0,1-3.24-.43,7,7,0,0,1-2.53-1.25l1.24-2.09a5.91,5.91,0,0,0,2,1,7.63,7.63,0,0,0,2.4.39,4,4,0,0,0,2.87-.89,3.64,3.64,0,0,0,.91-2.7v-.63A4.64,4.64,0,0,1,106.3,43a6.08,6.08,0,0,1-2.25.4,6.45,6.45,0,0,1-3-.72,5.39,5.39,0,0,1-2.15-2,5.65,5.65,0,0,1-.79-3,5.58,5.58,0,0,1,.79-3,5.27,5.27,0,0,1,2.15-2,6.56,6.56,0,0,1,3-.71,6.34,6.34,0,0,1,2.35.42,4.27,4.27,0,0,1,1.76,1.29V32.05Zm-3.74,8a3.19,3.19,0,0,0,1-2.45,3.15,3.15,0,0,0-1-2.42,3.65,3.65,0,0,0-2.58-.93,3.69,3.69,0,0,0-2.61.93,3.12,3.12,0,0,0-1,2.42,3.15,3.15,0,0,0,1,2.45,3.66,3.66,0,0,0,2.61,1A3.62,3.62,0,0,0,107.06,40.07Z"/><path class="cls-1" d="M114.44,27.44h2.77V43.9h-2.77Z"/><path class="cls-1" d="M132,38.87h-9.3a3.2,3.2,0,0,0,1.28,2.07,4.18,4.18,0,0,0,2.56.77,4.32,4.32,0,0,0,3.22-1.29l1.49,1.71a5.09,5.09,0,0,1-2,1.44,8,8,0,0,1-6.2-.29,5.62,5.62,0,0,1-2.29-2.16,6.52,6.52,0,0,1,0-6.26,5.46,5.46,0,0,1,2.18-2.16,6.34,6.34,0,0,1,3.15-.78,6.22,6.22,0,0,1,3.1.76,5.4,5.4,0,0,1,2.13,2.16A6.5,6.5,0,0,1,132,38C132,38.24,132,38.51,132,38.87Zm-8.2-3.94A3.29,3.29,0,0,0,122.63,37h6.72A3.23,3.23,0,0,0,126,34.14,3.31,3.31,0,0,0,123.75,34.93Z"/><path class="cls-1" d="M151,29a5.19,5.19,0,0,1,2.3,1.91,5.82,5.82,0,0,1,0,5.89,5.08,5.08,0,0,1-2.3,1.92,8.5,8.5,0,0,1-3.52.67h-3.51V43.9h-2.88V28.37h6.39A8.67,8.67,0,0,1,151,29Zm-.79,7.15a3.15,3.15,0,0,0,0-4.57,4.43,4.43,0,0,0-2.86-.8h-3.38V37h3.38A4.43,4.43,0,0,0,150.17,36.18Z"/><path class="cls-1" d="M156.9,27.44h2.77V43.9H156.9Z"/><path class="cls-1" d="M171.84,33.17A4.84,4.84,0,0,1,173.23,37V43.9h-2.62V42.46a3.24,3.24,0,0,1-1.45,1.19,5.77,5.77,0,0,1-2.28.41,5.51,5.51,0,0,1-2.33-.46A3.58,3.58,0,0,1,163,42.34a3.22,3.22,0,0,1-.54-1.83,3.15,3.15,0,0,1,1.18-2.57,5.94,5.94,0,0,1,3.74-1h3.07V36.8a2.43,2.43,0,0,0-.75-1.91,3.22,3.22,0,0,0-2.21-.66,6.27,6.27,0,0,0-2,.31,4.68,4.68,0,0,0-1.63.86l-1.09-2a6.77,6.77,0,0,1,2.24-1.08,9.73,9.73,0,0,1,2.78-.38A5.79,5.79,0,0,1,171.84,33.17Zm-2.53,8.39a2.65,2.65,0,0,0,1.15-1.36V38.82h-2.87c-1.59,0-2.39.53-2.39,1.58a1.43,1.43,0,0,0,.6,1.2,2.77,2.77,0,0,0,1.66.44A3.54,3.54,0,0,0,169.31,41.56Z"/><path class="cls-1" d="M187.66,32.05l-5.55,12.81a6.05,6.05,0,0,1-1.89,2.72,4.54,4.54,0,0,1-2.68.78,5.58,5.58,0,0,1-1.76-.28,4.05,4.05,0,0,1-1.42-.8l1.11-2.05a2.75,2.75,0,0,0,.95.6,2.81,2.81,0,0,0,1.09.23,1.88,1.88,0,0,0,1.21-.38,3.3,3.3,0,0,0,.88-1.27l.2-.46-5.17-11.9h2.88l3.73,8.77L185,32.05Z"/><path class="cls-2" d="M47.1,29l-7.46-4.3-6.13,5.93,5.6,5.42,8-4.61a1.41,1.41,0,0,0,0-2.44Z"/><polygon class="cls-3" points="38.38 23.97 30.17 19.23 12.18 10.02 32.5 29.65 38.38 23.97"/><polygon class="cls-4" points="12.48 50.95 30.2 41.19 37.85 36.78 32.5 31.61 12.48 50.95"/><polygon class="cls-5" points="10.98 10.81 10.96 50.47 31.49 30.63 10.98 10.81"/><path class="cls-1" d="M57.4,19.74a3.8,3.8,0,0,1-1.76-.41,4.56,4.56,0,0,1-1.41-1.1,5.23,5.23,0,0,1-.94-1.55,4.84,4.84,0,0,1-.34-1.8,5.12,5.12,0,0,1,1.27-3.37,4.41,4.41,0,0,1,1.41-1,4,4,0,0,1,1.77-.38,4.19,4.19,0,0,1,2.28.57A3.7,3.7,0,0,1,61,12.16l-.92.64A2.84,2.84,0,0,0,59,11.57a3.26,3.26,0,0,0-1.6-.41,2.92,2.92,0,0,0-1.32.31,3.27,3.27,0,0,0-1,.84,3.86,3.86,0,0,0-.64,1.2,4.42,4.42,0,0,0-.23,1.4,4.27,4.27,0,0,0,.25,1.44,3.7,3.7,0,0,0,.71,1.2,3.48,3.48,0,0,0,1.06.81,2.89,2.89,0,0,0,1.3.3,3.1,3.1,0,0,0,1.56-.42A4.59,4.59,0,0,0,60.44,17v1.25A3.87,3.87,0,0,1,57.4,19.74Zm2.9-3.9H58.24v-.92h3.08v4.76h-1Z"/><path class="cls-1" d="M69.63,18.6v1.08H63.16V10.14h6.35v1.08H64.36v3.09h4.47v1H64.36V18.6Z"/><path class="cls-1" d="M78.15,11.22H74.86v8.46H73.65V11.22H70.37V10.14h7.78Z"/><path class="cls-1" d="M82.52,19.68V10.14h1.2v9.54Z"/><path class="cls-1" d="M87.21,12.37v7.31H86V10.14h1l5.82,7.45V10.16h1.21v9.52H93Z"/><path class="cls-1" d="M103.61,19.74a4.06,4.06,0,0,1-1.83-.4,4.46,4.46,0,0,1-1.42-1.09,5.31,5.31,0,0,1-.92-1.56,5.18,5.18,0,0,1-.32-1.78,5.07,5.07,0,0,1,.34-1.82,5,5,0,0,1,1-1.54,4.47,4.47,0,0,1,1.43-1.08,4.27,4.27,0,0,1,3.61,0,4.63,4.63,0,0,1,1.41,1.12,5.15,5.15,0,0,1,.91,1.55,4.89,4.89,0,0,1,.32,1.76,5,5,0,0,1-.33,1.82,5.14,5.14,0,0,1-1,1.55,4.52,4.52,0,0,1-1.43,1.06A4.07,4.07,0,0,1,103.61,19.74Zm-3.27-4.83a4.16,4.16,0,0,0,.24,1.4,4,4,0,0,0,.66,1.2,3.27,3.27,0,0,0,1,.84,3,3,0,0,0,1.34.31,2.8,2.8,0,0,0,1.37-.33,3.27,3.27,0,0,0,1-.86,4,4,0,0,0,.64-1.2,4.25,4.25,0,0,0,.22-1.36,4.42,4.42,0,0,0-.23-1.4,4.16,4.16,0,0,0-.67-1.2,3.32,3.32,0,0,0-1-.83,3.12,3.12,0,0,0-2.69,0,3.27,3.27,0,0,0-1,.86,3.86,3.86,0,0,0-.65,1.2A4.18,4.18,0,0,0,100.34,14.91Z"/><path class="cls-1" d="M111,12.37v7.31h-1.21V10.14h1l5.83,7.45V10.16h1.21v9.52h-1.1Z"/></g></g></svg>