<?xml version="1.0" encoding="UTF-8"?>
<svg id="Layer_2" data-name="Layer 2" xmlns="http://www.w3.org/2000/svg" viewBox="0 0 136 136">
  <defs>
    <style>
      .cls-1 {
        fill: #fff;
      }

      .cls-2 {
        fill: #6dbd48;
      }
    </style>
  </defs>
  <g id="Layer_1-2" data-name="Layer 1">
    <g>
      <circle class="cls-2" cx="68" cy="68" r="68"/>
      <g>
        <path class="cls-1" d="M96.55,49.23c-1.09-.79-2.07-1.49-3.05-2.2-2.82-2.03-5.62-4.08-8.46-6.09-.45-.32-.49-.61-.29-1.05,.36-.77,.97-1.22,1.82-1.23,2.68-.02,5.36-.03,8.03,0,1.1,.01,1.93,.87,1.94,1.96,.02,2.81,0,5.62,0,8.6Z"/>
        <g>
          <path class="cls-1" d="M100.47,56.99c-10.25-7.43-20.52-14.84-30.79-22.24-.37-.27-.77-.5-1.15-.75h-1.06c-3.34,2.39-6.68,4.76-10.01,7.16-7.4,5.33-14.8,10.67-22.18,16.04-.5,.36-.85,.91-1.28,1.38v.93c.22,.35,.39,.75,.67,1.04,.67,.69,1.6,.74,2.48,.17,.37-.24,.72-.51,1.08-.77,.36-.26,.72-.51,1.21-.87v.84c0,13.14,.01,26.27-.02,39.4,0,1.24,.35,2.13,1.48,2.68h54.19c1.14-.53,1.48-1.44,1.48-2.67-.03-13.1-.02-26.2-.02-39.31v-.93c.65,.46,1.21,.85,1.78,1.26,1.66,1.19,2.65,1,3.67-.71v-1.06c-.51-.53-.95-1.15-1.53-1.58Zm-7.63,19.19c.14,.23,.14,.48-.01,.71-.06,.09-.13,.17-.22,.25-1.16,1.17-2.33,2.35-3.51,3.51-.16,.16-.36,.26-.55,.38-.54-.06-.86-.58-.62-1.03,.03-.06,.09-.13,.13-.19,1.25-1.23,2.48-2.48,3.72-3.71,.1-.09,.23-.17,.36-.2,.29-.07,.54,.03,.7,.29Zm-1.03-4.81c.29,.29,.26,.67-.07,1-1.83,1.84-3.67,3.68-5.51,5.52-.23,.23-.49,.33-.81,.2-.26-.13-.39-.35-.39-.74,.06-.09,.13-.26,.25-.39,1.84-1.86,3.7-3.7,5.54-5.54,.33-.33,.72-.35,1-.06Zm-4.7-.94c.28,.28,.26,.68-.04,.99-1.22,1.23-2.46,2.46-3.7,3.68-.22,.23-.48,.32-.78,.17-.25-.12-.38-.33-.38-.72,.04-.07,.12-.26,.23-.38,1.23-1.25,2.46-2.48,3.7-3.7,.3-.32,.7-.32,.97-.04Zm-7.52,.94c.41-.39,.8-.8,1.2-1.2l1.1-1.1c.32-.3,.71-.32,.99-.06,.29,.29,.29,.67-.04,1-.75,.77-1.51,1.52-2.26,2.26-.13,.13-.33,.2-.42,.25-.39-.01-.59-.14-.71-.41-.12-.28-.06-.52,.14-.74Zm-9.21,10.87c-.9,.35-1.55,.91-1.86,1.87-.35-.93-.93-1.55-1.88-1.86,.94-.33,1.55-.93,1.87-1.87,.35,.91,.91,1.55,1.87,1.86Zm-5.35-10.9c.39-.17,.65-.43,.83-.81,.19-.42,.42-.81,.67-1.28,.14,.26,.29,.48,.38,.71,.3,.81,.86,1.36,1.65,1.65,.23,.09,.45,.23,.72,.39-.46,.25-.87,.49-1.3,.7-.36,.16-.59,.41-.75,.75-.2,.42-.43,.84-.7,1.3-.23-.45-.46-.84-.65-1.25-.17-.41-.46-.68-.87-.86-.39-.19-.78-.41-1.23-.65,.45-.25,.86-.48,1.26-.67Zm4.26,25.26c-.91,.9-1.8,1.84-2.74,2.72-.72,.68-1.88,.61-2.59-.09-.71-.7-.8-1.86-.12-2.58,.88-.96,1.84-1.86,2.78-2.78,.9,.9,1.78,1.78,2.67,2.68,0,0,.01,.03,0,.04Zm.46-1.55c-.54-.54-1.09-1.09-1.61-1.62,2.09-2.09,4.2-4.2,6.3-6.3l1.62,1.62c-2.09,2.09-4.2,4.2-6.32,6.3Zm10.26-7.46c-.81,.04-1.62,.19-2.43,.32-.2,.03-.35,.04-.52-.13-.54-.58-1.1-1.13-1.67-1.68-.13-.13-.19-.25-.13-.43,.43-1.42,.43-2.86,.2-4.3-.01-.12-.01-.22-.01-.3,2.22,2.23,4.45,4.45,6.65,6.65-.68-.04-1.39-.14-2.09-.12Zm5.9,1.93c-.13-.1-.25-.22-.36-.33-3.86-3.86-7.71-7.71-11.57-11.57-1.09-1.09-1.09-2.29,0-3.38,.28-.28,.54-.55,.84-.87,.1,.1,.19,.19,.28,.26,1.64,1.65,3.28,3.29,4.91,4.93,.09,.09,.17,.17,.28,.25,.26,.2,.61,.17,.86-.06,.22-.22,.26-.59,.07-.86-.07-.1-.16-.17-.25-.26-1.42-1.42-2.84-2.84-4.26-4.28-.09-.07-.17-.16-.23-.23,.35-.33,.67-.67,.99-.97,4.51,4.52,9.04,9.04,13.55,13.57-.29,.29-.62,.62-.99,.97-1.46-1.46-2.97-2.97-4.46-4.46-.09-.09-.17-.17-.26-.25-.26-.2-.64-.17-.86,.04-.25,.25-.28,.61-.07,.88,.07,.09,.17,.17,.26,.26,1.62,1.64,3.26,3.28,4.9,4.9,.07,.07,.17,.14,.32,.26-.55,.49-1.01,1.01-1.58,1.39-.72,.48-1.68,.35-2.36-.2Zm5.26,7.84c-.29,.14-.48,.33-.62,.62-.17,.38-.39,.74-.61,1.16-.23-.43-.42-.84-.65-1.22-.13-.2-.32-.39-.54-.52-.36-.23-.77-.42-1.2-.65,.43-.22,.83-.41,1.2-.64,.2-.14,.41-.33,.54-.55,.25-.36,.42-.77,.65-1.2,.2,.39,.41,.72,.57,1.07,.16,.36,.41,.61,.77,.77,.35,.16,.67,.35,1.06,.55-.42,.22-.78,.43-1.16,.61Zm3.01-16.16c-.8,.81-1.61,1.62-2.42,2.42-.12,.1-.28,.13-.49,.25-.19-.16-.42-.28-.54-.46-.16-.26-.09-.54,.13-.77,.65-.64,1.29-1.29,1.93-1.93,.16-.15,.3-.3,.46-.43,.29-.25,.64-.23,.9,.01,.25,.26,.29,.64,.03,.91Z"/>
          <path class="cls-1" d="M82.83,79.73c-.38-.01-.7,.26-.71,.64,0,.36,.3,.68,.67,.68s.65-.28,.67-.64c.01-.38-.26-.67-.62-.68Z"/>
        </g>
      </g>
    </g>
  </g>
</svg>