<?xml version="1.0" encoding="UTF-8"?>
<svg id="Layer_2" data-name="Layer 2" xmlns="http://www.w3.org/2000/svg" viewBox="0 0 136 136">
  <defs>
    <style>
      .cls-1 {
        fill: #fff;
      }

      .cls-2 {
        fill: #6dbd48;
      }
    </style>
  </defs>
  <g id="Layer_1-2" data-name="Layer 1">
    <g>
      <circle class="cls-2" cx="68" cy="68" r="68"/>
      <g>
        <path class="cls-1" d="M60.16,102c-1.45-.26-2.93-.42-4.35-.81-7.33-2.01-12.58-6.52-15.75-13.42-.21-.45-.14-1.08-.05-1.61,.93-5.45,7.11-8.27,11.84-5.4,.37,.23,.65,.23,1.03,.07,1.73-.74,3.53-1.01,5.37-.49,.3,.08,.6,.27,.83,.49,1.23,1.2,2.64,1.57,4.26,.97,1.53-.57,2.51-2.04,2.53-3.71,0-.6,.04-1.2-.01-1.79-.05-.52,.18-.81,.58-1.08,1.97-1.32,4.04-1.5,6.15-.42,.69,.35,1.21,.39,1.94,.05,4.62-2.11,9.97,.55,11.01,5.47,.15,.72-.04,1.53-.18,2.28-1.86,9.97-10.15,17.83-20.18,19.16-.52,.07-1.04,.16-1.56,.24h-3.45Zm17.63-19.95v-3.92h-3.91v3.92h3.91Zm-23.91,7.97v-3.91h-3.9v3.91h3.9Zm11.94,3.99v-3.9h-3.9v3.9h3.9Z"/>
        <path class="cls-1" d="M102,78.09h-3.98v-7.97h-1.11c-2.88,0-5.75,0-8.63,0-1.78,0-2.47,.69-2.49,2.49,0,.15,0,.3,0,.56-.26-.2-.45-.33-.64-.47-3.31-2.52-6.97-3.18-10.96-2.03-.33,.09-.74,.1-1.07,0-2.2-.71-4.39-.72-6.58,.03-.16,.06-.33,.11-.71,.23,.26-1.5,.38-2.92,.76-4.25,2.48-8.58,8.09-13.96,16.8-16,1.49-.35,3.07-.41,4.61-.45,3.07-.07,6.15-.02,9.23-.02h.76v-7.97h4v35.86Z"/>
        <path class="cls-1" d="M49.94,34v20.13c1.04,.05,2.03,.02,3,.18,2.86,.45,4.91,2.88,4.96,5.79,.01,.66,0,1.32,0,2.05h3.95v3.99h-27.86v-3.98h3.99c0-.64,0-1.2,0-1.75,.01-3.65,2.58-6.21,6.23-6.22,.57,0,1.13,0,1.74,0v-20.19h3.98Z"/>
        <path class="cls-1" d="M34,70.12h27.84v3.96h-3.92v2.1c-1.77-.19-3.43-.03-5.06,.44-.15,.04-.36,0-.51-.06-5.11-2.2-10.93-.34-14.02,3.8-.03,.05-.1,.07-.27,.2v-6.46h-4.07v-3.98Z"/>
      </g>
    </g>
  </g>
</svg>