<?xml version="1.0" encoding="UTF-8"?>
<svg id="Layer_2" data-name="Layer 2" xmlns="http://www.w3.org/2000/svg" viewBox="0 0 136 136">
  <defs>
    <style>
      .cls-1 {
        fill: #fff;
      }

      .cls-2 {
        fill: #6dbd48;
      }
    </style>
  </defs>
  <g id="Layer_1-2" data-name="Layer 1">
    <g>
      <path class="cls-1" d="M63.21,102c-1.08-1.94-2.15-3.88-3.28-5.9h16.12c-1.12,2.02-2.2,3.96-3.28,5.9h-9.56Z"/>
      <path class="cls-1" d="M87.12,102c-1.05-1.91-2.11-3.83-3.16-5.74-.02-.03,0-.08,.02-.16h7.92v5.91h-4.78Z"/>
      <circle class="cls-2" cx="68" cy="68" r="68"/>
      <path class="cls-1" d="M73.97,34c.37,.14,.75,.24,1.1,.42,1.37,.67,2.24,1.76,2.42,3.26,.12,1.06,.02,2.15,.02,3.26h-19.02c-.22-3.25-.32-5.73,3.52-6.94,3.98,0,7.97,0,11.95,0Z"/>
      <path class="cls-1" d="M91.91,57.88H44.12c-.01-.17-.04-.36-.04-.55,0-1.57,0-3.14,0-4.71,.01-2.09,1.13-3.8,3.08-4.51,.73-.27,.95-.64,.91-1.39-.06-1.41-.02-2.83-.02-4.29h3.97v3.7c.83-.33,1.55-.64,2.3-.9,.41-.14,.85-.24,1.28-.24,7.95-.01,15.89,0,23.84-.02,1.11,0,2.15,.12,3.14,.62,.31,.16,.65,.26,1.05,.42v-3.58h4.01c0,1.51,.03,3.01-.01,4.51-.01,.53,.14,.78,.65,.94,2.51,.83,3.78,2.75,3.63,5.36-.05,.9,0,1.81,0,2.72v1.94Z"/>
      <path class="cls-1" d="M44.1,92.02v-10.95h47.76v10.95H44.1Z"/>
      <path class="cls-1" d="M44.11,67.43v-5.5h47.74v5.5H44.11Z"/>
      <path class="cls-1" d="M44.11,77.01v-5.5h47.75v5.5H44.11Z"/>
    </g>
  </g>
</svg>