<?xml version="1.0" encoding="UTF-8"?>
<svg id="Layer_2" data-name="Layer 2" xmlns="http://www.w3.org/2000/svg" viewBox="0 0 136 136">
  <defs>
    <style>
      .cls-1 {
        fill: #fff;
      }

      .cls-2 {
        fill: #6dbd48;
      }
    </style>
  </defs>
  <g id="Layer_1-2" data-name="Layer 1">
    <g>
      <circle class="cls-2" cx="68" cy="68" r="68"/>
      <g>
        <path class="cls-1" d="M45.24,104.91v-5.77c-1.28,0-2.45,.02-3.61,0-3.6-.06-6.62-2.49-7.42-6-.15-.65-.2-1.33-.2-2-.01-9.63-.01-19.27,0-28.9,0-4.62,3.25-7.89,7.86-7.96,1.07-.02,2.15,0,3.28,0,.03-.55,.05-1.02,.07-1.54h39.17v9.48H45.21v-3.56c-1.46,0-2.84-.11-4.19,.03-1.47,.15-2.57,1.54-2.68,3.06-.02,.24,0,.48,0,.72,0,9.49,0,18.98,0,28.47,0,2.59,1.3,3.88,3.91,3.88,.96,0,1.91,0,2.92,0,.03-.55,.05-1.05,.07-1.62,.34,0,.65,0,.95,0,13.96,0,27.92,0,41.88,0,3.41,0,5.32-1.9,5.32-5.3,0-5.86,0-11.72,0-17.59,0-.26,0-.52,0-.89h-4.28v-16.59h4.28c0-2.04,0-3.98,0-5.92,0-1.97,.63-3.72,1.83-5.27,1.61-2.09,4.41-3.46,6.78-3.29v4.09c-.8,.31-1.6,.5-2.29,.9-1.17,.67-1.89,1.77-1.94,3.11-.09,2.08-.02,4.17-.02,6.36h4.27v16.56h-4.29c0,.35,0,.62,0,.9,0,6.03,.01,12.06,0,18.09-.01,4.45-3.01,8.17-7.37,8.95-1.5,.27-3.06,.15-4.6,.2-.4,.01-.81,0-1.29,0v7.39H45.24Z"/>
        <path class="cls-1" d="M72.35,31.09v4.3h-5.3v4.46c.25,0,.5,0,.75,0,2.33,0,4.66,0,6.99,0,.35,0,.62-.01,.77,.44,.82,2.53,1.68,5.05,2.52,7.58,.04,.13,.04,.27,.06,.45h-26.69c.06-.22,.09-.42,.16-.62,.8-2.41,1.62-4.82,2.41-7.24,.15-.46,.35-.63,.85-.63,2.31,.03,4.61,.01,6.92,.01,.26,0,.52,0,.83,0v-4.41h-5.26v-4.35h15Z"/>
        <path class="cls-1" d="M45.24,88.83v-22.19h39.15v22.19H45.24Zm19.49-14.11c-1.43-1.43-2.82-2.84-4.14-4.15-1,.99-2,1.97-3.11,3.08,1.36,1.35,2.77,2.75,4.31,4.27-1.41,1.38-2.82,2.77-4.16,4.08,.98,.99,1.96,1.98,2.98,3.01,1.37-1.38,2.76-2.78,4.22-4.25,1.45,1.46,2.85,2.86,4.14,4.16,1.03-1.02,2.02-2.01,3.11-3.1-1.34-1.33-2.74-2.73-4.29-4.27,1.41-1.41,2.82-2.8,4.17-4.15-.95-.95-1.93-1.93-2.97-2.97-1.37,1.37-2.77,2.78-4.26,4.28Z"/>
      </g>
    </g>
  </g>
</svg>