<?xml version="1.0" encoding="UTF-8"?>
<svg id="Layer_2" data-name="Layer 2" xmlns="http://www.w3.org/2000/svg" viewBox="0 0 136 136">
  <defs>
    <style>
      .cls-1 {
        fill: #fff;
      }

      .cls-2 {
        fill: #6dbd48;
      }
    </style>
  </defs>
  <g id="Layer_1-2" data-name="Layer 1">
    <g>
      <circle class="cls-2" cx="68" cy="68" r="68"/>
      <g>
        <path class="cls-1" d="M30.32,81.5c-3.35,0-6.1,2.72-6.12,6.05-.03,3.31,2.73,6.09,6.07,6.14,3.34,.06,6.17-2.78,6.16-6.14-.01-3.35-2.74-6.05-6.1-6.05Zm.03,9c-1.59,.01-2.95-1.33-2.95-2.92s1.27-2.85,2.85-2.88c1.66-.03,2.95,1.22,2.97,2.85,.03,1.6-1.27,2.94-2.87,2.96Zm42.28-14.41c0-.18-.05-.36-.09-.56H34.77v3.05h37.86c0-.88,.01-1.69,0-2.5Zm39.07,2.43v1.59h1.55v-1.59h-1.55Z"/>
        <g>
          <path class="cls-1" d="M45.35,81.5c-3.35,.03-6.12,2.79-6.08,6.1,.03,3.31,2.82,6.09,6.12,6.09s6.14-2.82,6.1-6.18c-.05-3.36-2.78-6.05-6.14-6.01Zm.06,9c-1.58,0-2.95-1.35-2.94-2.92,0-1.6,1.32-2.9,2.95-2.88s2.88,1.29,2.86,2.94c-.03,1.58-1.31,2.86-2.87,2.87Z"/>
          <path class="cls-1" d="M75.64,87.81c.03,.41,.03,.81-.01,1.23-.1,1.03-.65,1.63-1.69,1.64-2.95,.04-5.9,.04-8.83,0-1.06-.01-1.6-.59-1.69-1.64-.05-.49-.05-1,.01-1.5,.12-1,.65-1.5,1.67-1.53,1.47-.03,2.95-.01,4.42-.01s2.82-.01,4.23,0c1.27,.03,1.82,.57,1.9,1.81Z"/>
          <path class="cls-1" d="M92.71,81.54c-.59,1.41-1.18,2.83-1.81,4.23-.09,.19-.47,.4-.7,.4-3.79,.03-7.58,.03-11.38,0-.27-.01-.66-.28-.81-.54-.89-1.58-2.21-2.43-4.04-2.44-2.99-.01-5.96-.01-8.94,0-1.82,.01-3.14,.88-4.04,2.46-.13,.25-.48,.52-.74,.52-1.81,.05-3.63,.05-5.44,.01-.23-.01-.58-.23-.69-.44-.62-1.37-1.19-2.77-1.78-4.19h40.37Z"/>
          <path class="cls-1" d="M99.63,81.5c-3.36,.01-6.08,2.73-6.08,6.08s2.74,6.09,6.08,6.12c3.34,.03,6.2-2.85,6.14-6.17-.04-3.35-2.79-6.05-6.14-6.03Zm0,9c-1.56-.03-2.86-1.31-2.87-2.87-.01-1.64,1.24-2.92,2.87-2.94,1.63,0,2.95,1.28,2.95,2.88s-1.37,2.94-2.95,2.92Z"/>
          <path class="cls-1" d="M111.78,68.11h-1.67c-2.32,0-4.63,.01-6.95,0-2.41-.01-3.58-1.19-3.58-3.56-.01-1.35,0-2.69,0-4.16h2.28c2.03,0,4.06-.01,6.09,.03,.31,0,.78,.21,.88,.44,1.02,2.28,1.98,4.58,2.95,6.88,.04,.08,0,.18,0,.38Z"/>
          <path class="cls-1" d="M109.36,76.84c-.76,1.07-.58,2.28-.53,3.44,.1,1.82,1.16,2.46,4.49,2.77v3.05h-4.48c-.87-1.55-1.5-3.12-2.51-4.37-1.77-2.2-4.24-3.1-7.06-3.07-1.88,.01-3.75,0-5.72,0v-1.11c0-6.95-.01-13.89,0-20.82,0-1.86,.48-2.35,2.32-2.35,2.29-.01,4.58-.03,6.85,0,2.32,.03,3.98,1.15,4.62,3.19h-7.77c-2.68,0-2.82,.14-2.82,2.81v4.04c.01,4.11,2.42,6.51,6.54,6.53,3.01,.01,6.01,.03,9.03-.01,.79-.01,1.05,.25,1.01,1.02-.05,1.18-.01,2.37-.01,3.67-1.44,.06-2.96-.17-3.96,1.22Z"/>
          <path class="cls-1" d="M56.01,45.48h-4.66c-.03-.97-.27-1.98,.59-2.74,.62-.54,2.59-.58,3.32-.1,1.09,.72,.67,1.81,.74,2.85Z"/>
          <path class="cls-1" d="M83.6,66.61c-1.78,3.57-4.72,5.6-8.73,5.95-1.27,.1-2.55,.01-3.93,.01v-14.29c0-1.51-.47-2.2-1.46-2.17-.96,.03-1.37,.67-1.37,2.15v14.32h-28.84v-14.27c0-.31,.01-.62-.03-.93-.09-.76-.54-1.2-1.29-1.25-.75-.04-1.25,.35-1.42,1.09-.08,.32-.08,.67-.08,1.02-.01,4.41,0,8.82,0,13.23v1.01c-6.85,1.1-12.4-2.35-13.49-8.55-.41-2.34-.36-4.9,.08-7.26,.92-4.85,4.98-8.02,10.06-8.29,1.06-.05,2.12-.01,3.35-.01,0,1-.01,1.95,0,2.9,.01,.75,.3,1.36,1.1,1.55,.91,.22,1.66-.38,1.69-1.37,.04-.98,.01-1.98,.01-3.03h28.85c0,1.01-.03,1.98,.01,2.94,.05,1.06,.71,1.63,1.63,1.47,.88-.14,1.15-.78,1.18-1.56,.03-.93,0-1.86,0-2.77,7.29-1.01,12.33,2.65,13.46,8.29,.66,3.29,.76,6.69-.79,9.83Z"/>
        </g>
      </g>
    </g>
  </g>
</svg>