<?xml version="1.0" encoding="UTF-8"?>
<svg id="Layer_2" data-name="Layer 2" xmlns="http://www.w3.org/2000/svg" viewBox="0 0 136 136">
  <defs>
    <style>
      .cls-1 {
        fill: #fff;
      }

      .cls-2 {
        fill: #6dbd48;
      }
    </style>
  </defs>
  <g id="Layer_1-2" data-name="Layer 1">
    <g>
      <circle class="cls-2" cx="68" cy="68" r="68"/>
      <g>
        <path class="cls-1" d="M58.79,55.28c-4.3-4.3-8.6-8.59-12.9-12.89,10.72-10.12,30.72-12.34,44.81,.3,13.84,12.41,15.16,34,2.88,47.59-.36-.33-.73-.66-1.08-1-3.31-3.3-6.58-6.63-9.93-9.89-.95-.93-1.58-1.77-1.01-3.17,.26-.64,.23-1.39,.34-2.17h2.99c0,1.78,0,3.56,0,5.34,0,1.22,.48,2.12,1.72,2.44,1.39,.36,2.7-.55,2.75-2.07,.09-2.73,.08-5.47,0-8.21-.05-1.4-.98-2.1-2.5-2.13-1.7-.03-3.39,0-5.17,0-.43-1.53-1.03-2.99-1.17-4.5-.06-.65,.84-1.38,1.42-2.27,1.18,1.24,2.17,2.29,3.17,3.32,1.28,1.33,2.51,1.49,3.57,.49,1.02-.96,.93-2.28-.29-3.61-1.34-1.46-2.7-2.9-4.07-4.34-1.39-1.46-2.49-1.5-4.02-.15-.59,.52-1.19,1.05-1.89,1.66-.99-1.94-2.4-3.56-1.84-5.83,.13-.54,.2-1.11,.45-1.59,1.26-2.53,2.58-5.03,3.87-7.55,.82-1.61,.57-2.92-.66-3.57-1.27-.67-2.54-.11-3.39,1.54-.87,1.67-1.73,3.35-2.65,5.14-1.87-1.62-3.91-2.64-6.38-2.65-2.49,0-4.59,.91-6.51,2.73-.99-1.9-1.95-3.71-2.87-5.54-.49-.97-1.2-1.6-2.31-1.56-1.69,.06-2.61,1.79-1.79,3.45,1.29,2.62,2.71,5.18,3.98,7.81,.42,.88,.54,1.9,.8,2.85-.11,0-.21,0-.32,0Z"/>
        <path class="cls-1" d="M84.23,87.61c2.12,2.15,4,4.06,5.87,5.96-9.69,9.45-29.72,12.94-44.55-.1-14.7-12.93-14.89-34.52-3.3-47.52,3.84,3.84,7.69,7.69,11.45,11.45-1.33-.28-2.28,.71-3.22,1.78-1.16,1.31-2.4,2.54-3.57,3.83-1.14,1.25-1.17,2.54-.14,3.49,1.04,.95,2.27,.81,3.47-.44,1.01-1.04,2-2.11,2.98-3.15q2,1.41,1.39,3.54-.85,2.98-4.02,2.98c-4.42,0-4.6,.19-4.6,4.64,0,1.75-.03,3.49,0,5.24,.04,1.67,.94,2.63,2.35,2.59,1.34-.04,2.14-.97,2.17-2.59,.02-1.73,0-3.47,0-5.27h2.94c.47,2.02,.94,4.02,1.43,6.13-.28,.15-.63,.41-1.02,.52-2.21,.61-2.93,2.08-2.72,4.27,.14,1.5,0,3.02,.04,4.53,.05,1.55,.99,2.54,2.3,2.5,1.26-.04,2.13-.98,2.2-2.47,.05-1.18,.06-2.36,0-3.54-.04-.82,.18-1.47,1.02-1.54,.48-.04,1.14,.16,1.47,.49,5.42,5.45,13.64,5.44,19.13-.03,.31-.31,.92-.52,1.36-.48,.72,.07,1.09,.55,1.04,1.38-.08,1.22-.05,2.45,0,3.68,.06,1.53,1.03,2.54,2.32,2.52,1.31-.03,2.15-1.02,2.2-2.6,.01-.5,0-1.01,0-1.78Z"/>
        <path class="cls-1" d="M65.47,84.15c-4.1-1.36-6.08-4.29-6.98-8.06-1.04-4.34,.22-8.35,1.99-12.5,1.61,1.65,3.1,3.15,4.56,4.69,.23,.24,.41,.65,.41,.98,.03,4.9,.02,9.8,.02,14.89Z"/>
        <path class="cls-1" d="M70.04,59.03q2.6-.23,3.7,1.89c1.76,3.4,3.16,6.93,3.57,10.78,.07,.65,0,1.31,0,2.18-.4-.31-.69-.49-.93-.73-.74-.72-1.48-1.45-2.2-2.19-1.38-1.41-3.48-2.62-3.97-4.29-.69-2.33-.17-5.02-.17-7.64Z"/>
        <path class="cls-1" d="M70.05,73.68c1.89,1.89,3.77,3.77,5.68,5.69-1.52,2.69-3.32,4.19-5.72,4.63,0-3.31,0-6.61,0-9.91,0-.17,.03-.34,.04-.41Z"/>
        <path class="cls-1" d="M71.95,54.34h-8.4c-.07-2.39,1.7-4.21,4.1-4.25,2.46-.04,4.26,1.7,4.3,4.25Z"/>
        <path class="cls-1" d="M62.7,59.08c.27-.05,.49-.12,.71-.13,.64-.02,1.28,0,1.99,0v2.87c-.85-.86-1.72-1.74-2.7-2.74Z"/>
      </g>
    </g>
  </g>
</svg>